<?xml version="1.0" encoding="UTF-8" standalone="no"?>
<svg
   class="svg-icon"
   style="overflow:hidden;fill:currentColor"
   viewBox="0 0 24 24"
   version="1.1"
   id="svg1"
   sodipodi:docname="delete-row.svg"
   width="24"
   height="24"
   inkscape:version="1.4 (86a8ad7, 2024-10-11)"
   xmlns:inkscape="http://www.inkscape.org/namespaces/inkscape"
   xmlns:sodipodi="http://sodipodi.sourceforge.net/DTD/sodipodi-0.dtd"
   xmlns="http://www.w3.org/2000/svg"
   xmlns:svg="http://www.w3.org/2000/svg">
  <defs
     id="defs1" />
  <sodipodi:namedview
     id="namedview1"
     pagecolor="#ffffff"
     bordercolor="#111111"
     borderopacity="1"
     inkscape:showpageshadow="0"
     inkscape:pageopacity="0"
     inkscape:pagecheckerboard="1"
     inkscape:deskcolor="#d1d1d1"
     inkscape:zoom="25.21875"
     inkscape:cx="25.833953"
     inkscape:cy="14.532838"
     inkscape:window-width="1920"
     inkscape:window-height="1009"
     inkscape:window-x="-8"
     inkscape:window-y="-8"
     inkscape:window-maximized="1"
     inkscape:current-layer="svg1" />
  <path
     d="M 3.3337331,7.7142849 H 13.336732 c 0.368114,0 0.666869,-0.3199995 0.666869,-0.7142852 0,-0.3942858 -0.298755,-0.7142856 -0.666869,-0.7142856 H 12.669868 V 3.4285712 h 2.667466 v 0.7142859 c 0,0.3942856 0.298755,0.7142858 0.666867,0.7142858 0.368109,0 0.666866,-0.3200002 0.666866,-0.7142858 V 3.4285712 C 16.671067,2.64 16.074887,2 15.337334,2 H 3.3337331 C 2.596179,2 2,2.64 2,3.4285712 V 6.2857141 C 2,7.0742854 2.596179,7.7142849 3.3337331,7.7142849 Z M 7.3349342,3.4285712 H 11.336132 V 6.2857141 H 7.3349342 Z m -4.0012011,0 H 6.0012002 V 6.2857141 H 3.3337331 Z M 16.004201,14.857142 c -0.368112,0 -0.666867,0.32 -0.666867,0.714286 v 0.714286 H 12.669868 V 13.42857 h 0.666864 c 0.368114,0 0.666869,-0.319999 0.666869,-0.714284 0,-0.394287 -0.298755,-0.714287 -0.666869,-0.714287 H 3.3337331 C 2.596179,11.999999 2,12.639999 2,13.42857 v 7.142859 C 2,21.361428 2.596179,22 3.3337331,22 H 15.337334 c 0.737553,0 1.333733,-0.638572 1.333733,-1.428571 v -5.000001 c 0,-0.394286 -0.298757,-0.714286 -0.666866,-0.714286 z M 6.0012002,20.571429 H 3.3337331 v -2.857145 h 2.6674671 z m 0,-4.285715 H 3.3337331 V 13.42857 h 2.6674671 z m 5.3349318,4.285715 H 7.3349342 v -2.857145 h 4.0011978 z m 0,-4.285715 H 7.3349342 V 13.42857 h 4.0011978 z m 4.001202,4.285715 h -2.667466 v -2.857145 h 2.667466 z M 19.53059,9.8571422 21.81261,7.412857 c 0.24807,-0.2657144 0.24807,-0.6971428 0,-0.962857 -0.249409,-0.2671432 -0.650862,-0.2671432 -0.900271,0 l -2.28202,2.4442851 -2.242004,-2.401428 c -0.248071,-0.2657143 -0.650859,-0.2657143 -0.898936,0 -0.249408,0.2657143 -0.249408,0.6971427 0,0.962857 l 2.243339,2.4014281 -2.242006,2.4014288 c -0.249407,0.265713 -0.249407,0.697142 0,0.962857 0.248075,0.265714 0.650863,0.265714 0.898939,0 L 18.632989,10.82 20.91367,13.262856 c 0.249409,0.267144 0.650864,0.267144 0.900272,0 0.248077,-0.265714 0.248077,-0.697143 0,-0.962857 z"
     id="path1"
     style="stroke-width:0.0215677" />
</svg>
