<?xml version="1.0" encoding="UTF-8" standalone="no"?>
<svg
   class="svg-icon"
   style="overflow:hidden;fill:currentColor"
   viewBox="0 0 24 24"
   version="1.1"
   id="svg1"
   sodipodi:docname="delete-column.svg"
   inkscape:version="1.4 (86a8ad7, 2024-10-11)"
   width="24"
   height="24"
   xmlns:inkscape="http://www.inkscape.org/namespaces/inkscape"
   xmlns:sodipodi="http://sodipodi.sourceforge.net/DTD/sodipodi-0.dtd"
   xmlns="http://www.w3.org/2000/svg"
   xmlns:svg="http://www.w3.org/2000/svg">
  <defs
     id="defs1" />
  <sodipodi:namedview
     id="namedview1"
     pagecolor="#ffffff"
     bordercolor="#111111"
     borderopacity="1"
     inkscape:showpageshadow="0"
     inkscape:pageopacity="0"
     inkscape:pagecheckerboard="1"
     inkscape:deskcolor="#d1d1d1"
     inkscape:zoom="25.21875"
     inkscape:cx="19.013631"
     inkscape:cy="11.995043"
     inkscape:window-width="1920"
     inkscape:window-height="1009"
     inkscape:window-x="-8"
     inkscape:window-y="-8"
     inkscape:window-maximized="1"
     inkscape:current-layer="svg1" />
  <path
     d="M 7.7142864,20.666268 V 10.663265 c 0,-0.368111 -0.3200011,-0.6668654 -0.7142859,-0.6668654 -0.3942879,0 -0.714288,0.2987544 -0.714288,0.6668654 v 0.666866 H 3.4285708 V 8.6626664 h 0.714286 c 0.3942847,0 0.7142849,-0.2987578 0.7142849,-0.6668658 0,-0.3681112 -0.3200002,-0.6668688 -0.7142849,-0.6668688 H 3.4285708 C 2.6399981,7.3289318 2,7.9251129 2,8.6626664 V 20.666268 C 2,21.403822 2.6399981,22 3.4285708,22 h 2.8571417 c 0.7885728,0 1.4285739,-0.596178 1.4285739,-1.333732 z M 3.4285708,16.665067 v -4.001201 h 2.8571417 v 4.001201 z m 0,4.001201 V 17.9988 h 2.8571417 v 2.667468 z M 14.857143,7.9958006 c 0,0.368108 0.320001,0.6668658 0.714286,0.6668658 h 0.714285 v 2.6674646 h -2.857141 v -0.666866 c 0,-0.368111 -0.320001,-0.6668654 -0.714289,-0.6668654 -0.394285,0 -0.714285,0.2987544 -0.714285,0.6668654 v 10.003003 c 0,0.737554 0.64,1.333732 1.428574,1.333732 H 20.57143 C 21.361427,22 22,21.403822 22,20.666268 V 8.6626664 C 22,7.9251129 21.361427,7.3289318 20.57143,7.3289318 h -5.000001 c -0.394285,0 -0.714286,0.2987576 -0.714286,0.6668688 z M 20.57143,17.9988 v 2.667468 H 17.714285 V 17.9988 Z m -4.285716,0 v 2.667468 H 13.428573 V 17.9988 Z m 4.285716,-5.334934 v 4.001201 h -2.857145 v -4.001201 z m -4.285716,0 v 4.001201 H 13.428573 V 12.663866 Z M 20.57143,8.6626664 V 11.330131 H 17.714285 V 8.6626664 Z M 9.857142,4.4694082 7.4128551,2.187389 c -0.2657135,-0.2480723 -0.6971401,-0.2480723 -0.9628569,0 -0.2671421,0.2494109 -0.2671421,0.6508631 0,0.900271 L 8.8942851,5.369678 6.4928555,7.6116837 c -0.2657136,0.2480754 -0.2657136,0.650863 0,0.8989384 0.2657158,0.2494081 0.6971435,0.2494081 0.9628572,0 l 2.4014293,-2.24334 2.40143,2.2420044 c 0.265714,0.2494076 0.697142,0.2494076 0.962857,0 0.265713,-0.2480753 0.265713,-0.650863 0,-0.8989353 L 10.82,5.3670111 13.262856,3.0863275 c 0.267144,-0.2494109 0.267144,-0.6508631 0,-0.900271 -0.265714,-0.2480753 -0.697142,-0.2480753 -0.962857,0 z"
     id="path1"
     style="stroke-width:0.0215678" />
</svg>
