<svg xmlns="http://www.w3.org/2000/svg" width="24" height="24" fill="currentColor" viewBox="0 0 24 24">
  <line x1="0" x2="16" y1="5" y2="5" stroke="black" fill="transparent" stroke-width="2"/>
  <line x1="0" x2="16" y1="13" y2="13" stroke="black" fill="transparent" stroke-width="2"/>
  <line x1="0" x2="16" y1="21" y2="21" stroke="black" fill="transparent" stroke-width="2"/>
  <path d="M0 2a2 2 0 0 1 2-2h12a2 2 0 0 1 2 2v12a2 2 0 0 1-2 2H2a2 2 0 0 1-2-2zm15 0a1 1 0 0 0-1-1H2a1 1 0 0 0-1 1v12a1 1 0 0 0 1 1h12a1 1 0 0 0 1-1z"/>

</svg>