<?xml version="1.0" encoding="UTF-8" standalone="no"?>
<!-- Uploaded to: SVG Repo, www.svgrepo.com, Generator: SVG Repo Mixer Tools -->

<svg
   width="24"
   height="24"
   viewBox="0 0 0.72 0.72"
   fill="none"
   version="1.1"
   id="svg1"
   sodipodi:docname="table-cells-merge.svg"
   inkscape:version="1.4 (86a8ad7, 2024-10-11)"
   xmlns:inkscape="http://www.inkscape.org/namespaces/inkscape"
   xmlns:sodipodi="http://sodipodi.sourceforge.net/DTD/sodipodi-0.dtd"
   xmlns="http://www.w3.org/2000/svg"
   xmlns:svg="http://www.w3.org/2000/svg">
  <defs
     id="defs1" />
  <sodipodi:namedview
     id="namedview1"
     pagecolor="#ffffff"
     bordercolor="#111111"
     borderopacity="1"
     inkscape:showpageshadow="0"
     inkscape:pageopacity="0"
     inkscape:pagecheckerboard="1"
     inkscape:deskcolor="#d1d1d1"
     inkscape:zoom="11.412703"
     inkscape:cx="26.856038"
     inkscape:cy="10.120302"
     inkscape:window-width="1920"
     inkscape:window-height="1009"
     inkscape:window-x="-8"
     inkscape:window-y="-8"
     inkscape:window-maximized="1"
     inkscape:current-layer="svg1" />
  <path
     d="M 0.1301594,7.7090351e-5 C 0.05840567,7.7090351e-5 2.3821081e-4,0.05826332 2.3821081e-4,0.1300401 v 0.45986911 c 0,0.0717756 0.0581674892,0.12996301 0.12992118919,0.12996301 h 0.45972117 c 0.0717525,0 0.1299212,-0.0581874 0.1299212,-0.12996301 V 0.1300401 c 0,-0.07177679 -0.0581687,-0.129963009649 -0.1299212,-0.129963009649 z M 0.06020189,0.1300401 c 0,-0.03864898 0.03132102,-0.06998002 0.06995751,-0.06998002 H 0.32004422 V 0.18002587 H 0.06020184 Z M 0.38000791,0.53992343 H 0.6598382 v 0.0499857 c 0,0.038649 -0.031321,0.06998 -0.0699576,0.06998 H 0.38000785 Z M 0.65983814,0.18002587 H 0.38000785 V 0.06006002 h 0.20987272 c 0.0386366,0 0.0699576,0.03133104 0.0699576,0.06998003 z M 0.32004422,0.53992343 V 0.65988929 H 0.1301594 c -0.0386366,0 -0.06995751,-0.031331 -0.06995751,-0.06998 V 0.53992343 Z M 0.06020184,0.2400088 h 0.5996363 v 0.2399317 h -0.5996363 z"
     fill="#212121"
     id="path1"
     style="stroke-width:0.0399822" />
</svg>
